<svg width="31" height="30" viewBox="0 0 31 30" fill="none" xmlns="http://www.w3.org/2000/svg">
<path d="M13.6875 3.16485C14.1947 2.73738 14.8367 2.50293 15.5 2.50293C16.1633 2.50293 16.8053 2.73738 17.3125 3.16485L25.75 10.2798C26.3838 10.8148 26.75 11.6011 26.75 12.4298V24.0673C26.75 24.6475 26.5195 25.2039 26.1093 25.6141C25.6991 26.0244 25.1427 26.2548 24.5625 26.2548H20.1875C19.6073 26.2548 19.0509 26.0244 18.6407 25.6141C18.2305 25.2039 18 24.6475 18 24.0673V17.8086C18 17.7257 17.9671 17.6462 17.9085 17.5876C17.8499 17.529 17.7704 17.4961 17.6875 17.4961H13.3125C13.2296 17.4961 13.1501 17.529 13.0915 17.5876C13.0329 17.6462 13 17.7257 13 17.8086V24.0673C13 24.6475 12.7695 25.2039 12.3593 25.6141C11.9491 26.0244 11.3927 26.2548 10.8125 26.2548H6.4375C6.15023 26.2548 5.86578 26.1983 5.60038 26.0883C5.33498 25.9784 5.09383 25.8173 4.8907 25.6141C4.68758 25.411 4.52645 25.1699 4.41651 24.9045C4.30658 24.6391 4.25 24.3546 4.25 24.0673V12.4298C4.25 11.6011 4.61625 10.8148 5.25 10.2798L13.6875 3.16485ZM16.1038 4.5986C15.9347 4.45633 15.7209 4.37831 15.5 4.37831C15.2791 4.37831 15.0653 4.45633 14.8962 4.5986L6.45875 11.7123C6.35434 11.8002 6.27037 11.9099 6.21273 12.0336C6.15508 12.1573 6.12514 12.2921 6.125 12.4286V24.0661C6.125 24.2386 6.265 24.3786 6.4375 24.3786H10.8125C10.8954 24.3786 10.9749 24.3457 11.0335 24.2871C11.0921 24.2285 11.125 24.149 11.125 24.0661V17.8073C11.125 16.5986 12.105 15.6198 13.3125 15.6198H17.6875C18.895 15.6198 19.875 16.5986 19.875 17.8073V24.0661C19.875 24.2386 20.015 24.3786 20.1875 24.3786H24.5625C24.6454 24.3786 24.7249 24.3457 24.7835 24.2871C24.8421 24.2285 24.875 24.149 24.875 24.0661V12.4286C24.8749 12.2921 24.8449 12.1573 24.7873 12.0336C24.7296 11.9099 24.6457 11.8002 24.5413 11.7123L16.1038 4.5986Z" fill="#5E5E60" stroke="#5E5E60" stroke-width="0.5"/>
</svg>
