<svg width="31" height="30" viewBox="0 0 31 30" fill="none" xmlns="http://www.w3.org/2000/svg">
<path d="M15.5 13.75C16.4889 13.75 17.4556 13.4568 18.2779 12.9074C19.1001 12.3579 19.741 11.5771 20.1194 10.6634C20.4978 9.74979 20.5969 8.74446 20.4039 7.77455C20.211 6.80465 19.7348 5.91373 19.0355 5.21447C18.3363 4.51521 17.4454 4.039 16.4755 3.84608C15.5055 3.65315 14.5002 3.75217 13.5866 4.1306C12.673 4.50904 11.8921 5.14991 11.3427 5.97215C10.7932 6.7944 10.5 7.7611 10.5 8.75C10.5 10.0761 11.0268 11.3479 11.9645 12.2855C12.9021 13.2232 14.1739 13.75 15.5 13.75ZM15.5 6.25C15.9945 6.25 16.4778 6.39662 16.8889 6.67133C17.3 6.94603 17.6205 7.33648 17.8097 7.79329C17.9989 8.25011 18.0484 8.75278 17.952 9.23773C17.8555 9.72268 17.6174 10.1681 17.2678 10.5178C16.9181 10.8674 16.4727 11.1055 15.9877 11.202C15.5028 11.2984 15.0001 11.2489 14.5433 11.0597C14.0865 10.8705 13.696 10.5501 13.4213 10.1389C13.1466 9.7278 13 9.24446 13 8.75C13 8.08696 13.2634 7.45108 13.7322 6.98223C14.2011 6.51339 14.837 6.25 15.5 6.25ZM15.5 16.25C13.1794 16.25 10.9538 17.1719 9.31282 18.8128C7.67187 20.4538 6.75 22.6794 6.75 25C6.75 25.3315 6.8817 25.6495 7.11612 25.8839C7.35054 26.1183 7.66848 26.25 8 26.25C8.33152 26.25 8.64946 26.1183 8.88388 25.8839C9.1183 25.6495 9.25 25.3315 9.25 25C9.25 23.3424 9.90848 21.7527 11.0806 20.5806C12.2527 19.4085 13.8424 18.75 15.5 18.75C17.1576 18.75 18.7473 19.4085 19.9194 20.5806C21.0915 21.7527 21.75 23.3424 21.75 25C21.75 25.3315 21.8817 25.6495 22.1161 25.8839C22.3505 26.1183 22.6685 26.25 23 26.25C23.3315 26.25 23.6495 26.1183 23.8839 25.8839C24.1183 25.6495 24.25 25.3315 24.25 25C24.25 22.6794 23.3281 20.4538 21.6872 18.8128C20.0462 17.1719 17.8206 16.25 15.5 16.25Z" fill="white"/>
</svg>
