<svg width="31" height="30" viewBox="0 0 31 30" fill="none" xmlns="http://www.w3.org/2000/svg">
<path d="M15.5 17.5C16.8807 17.5 18 16.3807 18 15C18 13.6193 16.8807 12.5 15.5 12.5C14.1193 12.5 13 13.6193 13 15C13 16.3807 14.1193 17.5 15.5 17.5Z" stroke="#5E5E60" stroke-width="2" stroke-linecap="round" stroke-linejoin="round"/>
<path d="M23 13.75C24.3807 13.75 25.5 12.6307 25.5 11.25C25.5 9.86929 24.3807 8.75 23 8.75C21.6193 8.75 20.5 9.86929 20.5 11.25C20.5 12.6307 21.6193 13.75 23 13.75Z" stroke="#5E5E60" stroke-width="2" stroke-linecap="round" stroke-linejoin="round"/>
<path d="M19.6476 4.53875C17.5295 3.69969 15.2067 3.52345 12.9863 4.03334C10.7659 4.54322 8.75262 5.71521 7.21283 7.39424C5.67305 9.07327 4.6793 11.1802 4.36307 13.4363C4.04684 15.6925 4.42302 17.9914 5.44185 20.0291C6.46069 22.0668 8.07415 23.7471 10.0688 24.8478C12.0634 25.9485 14.3452 26.4176 16.6123 26.1932C18.8794 25.9688 21.025 25.0614 22.7651 23.591C24.5053 22.1207 25.758 20.1566 26.3576 17.9587M25.5001 11.25V2.5L28.0001 5" stroke="#5E5E60" stroke-width="2" stroke-linecap="round" stroke-linejoin="round"/>
</svg>
