<svg width="31" height="30" viewBox="0 0 31 30" fill="none" xmlns="http://www.w3.org/2000/svg">
<path d="M13.6875 3.16509C14.1947 2.73762 14.8367 2.50317 15.5 2.50317C16.1633 2.50317 16.8053 2.73762 17.3125 3.16509L25.75 10.2801C26.3838 10.8151 26.75 11.6013 26.75 12.4301V24.0676C26.75 24.6478 26.5195 25.2042 26.1093 25.6144C25.6991 26.0246 25.1427 26.2551 24.5625 26.2551H20.1875C19.6073 26.2551 19.0509 26.0246 18.6407 25.6144C18.2305 25.2042 18 24.6478 18 24.0676V17.8088C18 17.726 17.9671 17.6465 17.9085 17.5879C17.8499 17.5293 17.7704 17.4963 17.6875 17.4963H13.3125C13.2296 17.4963 13.1501 17.5293 13.0915 17.5879C13.0329 17.6465 13 17.726 13 17.8088V24.0676C13 24.6478 12.7695 25.2042 12.3593 25.6144C11.9491 26.0246 11.3927 26.2551 10.8125 26.2551H6.4375C6.15023 26.2551 5.86578 26.1985 5.60038 26.0886C5.33498 25.9786 5.09383 25.8175 4.8907 25.6144C4.68758 25.4113 4.52645 25.1701 4.41651 24.9047C4.30658 24.6393 4.25 24.3549 4.25 24.0676V12.4301C4.25 11.6013 4.61625 10.8151 5.25 10.2801L13.6875 3.16509ZM16.1038 4.59884C15.9347 4.45657 15.7209 4.37855 15.5 4.37855C15.2791 4.37855 15.0653 4.45657 14.8962 4.59884L6.45875 11.7126C6.35434 11.8005 6.27037 11.9101 6.21273 12.0338C6.15508 12.1575 6.12514 12.2924 6.125 12.4288V24.0663C6.125 24.2388 6.265 24.3788 6.4375 24.3788H10.8125C10.8954 24.3788 10.9749 24.3459 11.0335 24.2873C11.0921 24.2287 11.125 24.1492 11.125 24.0663V17.8076C11.125 16.5988 12.105 15.6201 13.3125 15.6201H17.6875C18.895 15.6201 19.875 16.5988 19.875 17.8076V24.0663C19.875 24.2388 20.015 24.3788 20.1875 24.3788H24.5625C24.6454 24.3788 24.7249 24.3459 24.7835 24.2873C24.8421 24.2287 24.875 24.1492 24.875 24.0663V12.4288C24.8749 12.2924 24.8449 12.1575 24.7873 12.0338C24.7296 11.9101 24.6457 11.8005 24.5413 11.7126L16.1038 4.59884Z" fill="white" stroke="white" stroke-width="0.5"/>
</svg>
