<svg width="197" height="243" viewBox="0 0 197 243" fill="none" xmlns="http://www.w3.org/2000/svg">
<path d="M28.6337 24V9.912H21.5777V6.72H38.8577V9.912H31.8257V24H28.6337ZM43.9406 24C43.3326 24 42.7726 23.848 42.2606 23.544C41.7646 23.24 41.3646 22.84 41.0606 22.344C40.7566 21.832 40.6046 21.272 40.6046 20.664V6.72H43.7726V20.52C43.7726 20.6 43.7966 20.672 43.8446 20.736C43.9086 20.784 43.9806 20.808 44.0606 20.808H54.3806C54.4606 20.808 54.5326 20.784 54.5966 20.736C54.6606 20.672 54.6926 20.6 54.6926 20.52V6.72H57.8846V20.664C57.8846 21.272 57.7326 21.832 57.4286 22.344C57.1246 22.84 56.7166 23.24 56.2046 23.544C55.7086 23.848 55.1566 24 54.5486 24H43.9406ZM60.5276 24V6.72H64.0076L74.6156 19.344V6.72H77.8076V24H74.3276L63.6956 11.352V24H60.5276ZM80.5443 24V6.72H96.4563V9.912H83.7363V13.752H93.9603V16.968H83.7363V20.808H96.4563V24H80.5443ZM98.3323 24V6.72H101.812L108.076 14.184L114.316 6.72H117.82V24H114.628V11.328L108.076 19.128L101.5 11.352V24H98.3323ZM120.646 24V10.056C120.646 9.448 120.798 8.896 121.102 8.4C121.406 7.888 121.806 7.48 122.302 7.176C122.814 6.872 123.374 6.72 123.982 6.72H134.566C135.174 6.72 135.734 6.872 136.246 7.176C136.758 7.48 137.166 7.888 137.47 8.4C137.774 8.896 137.926 9.448 137.926 10.056V24H134.734V18.192H123.814V24H120.646ZM123.814 15.024H134.734V10.2C134.734 10.12 134.702 10.056 134.638 10.008C134.574 9.944 134.502 9.912 134.422 9.912H124.102C124.022 9.912 123.95 9.944 123.886 10.008C123.838 10.056 123.814 10.12 123.814 10.2V15.024ZM146.852 24V9.912H139.796V6.72H157.076V9.912H150.044V24H146.852ZM158.919 24V6.72H174.831V9.912H162.111V13.752H172.335V16.968H162.111V20.808H174.831V24H158.919Z" fill="url(#paint0_linear_259_7614)"/>
<g filter="url(#filter0_f_259_7614)">
<ellipse cx="101" cy="147.682" rx="54.5" ry="55" fill="url(#paint1_linear_259_7614)" fill-opacity="0.8"/>
</g>
<ellipse cx="77.8893" cy="129.56" rx="39.3893" ry="39.5604" fill="url(#paint2_linear_259_7614)"/>
<ellipse cx="118.592" cy="169.121" rx="39.3893" ry="39.5604" fill="url(#paint3_linear_259_7614)"/>
<g filter="url(#filter1_b_259_7614)">
<mask id="path-5-outside-1_259_7614" maskUnits="userSpaceOnUse" x="37.5" y="128.561" width="122" height="42" fill="black">
<rect fill="white" x="37.5" y="128.561" width="122" height="42"/>
<path fill-rule="evenodd" clip-rule="evenodd" d="M117.189 129.743C117.189 129.682 117.189 129.621 117.189 129.561L77.8443 129.695L38.5 129.829C38.5176 135.018 39.5526 140.153 41.5461 144.941C43.5396 149.728 46.4524 154.075 50.1183 157.731C53.7841 161.388 58.1313 164.284 62.9114 166.254C67.6916 168.223 72.8113 169.228 77.978 169.21C78.59 169.208 79.2011 169.192 79.8111 169.161C79.811 169.177 79.811 169.193 79.811 169.209L119.156 169.209L158.5 169.209C158.5 164.02 157.482 158.882 155.505 154.087C153.528 149.293 150.63 144.937 146.976 141.268C143.323 137.598 138.986 134.688 134.212 132.702C129.439 130.716 124.322 129.694 119.156 129.694C118.499 129.694 117.843 129.71 117.189 129.743Z"/>
</mask>
<path fill-rule="evenodd" clip-rule="evenodd" d="M117.189 129.743C117.189 129.682 117.189 129.621 117.189 129.561L77.8443 129.695L38.5 129.829C38.5176 135.018 39.5526 140.153 41.5461 144.941C43.5396 149.728 46.4524 154.075 50.1183 157.731C53.7841 161.388 58.1313 164.284 62.9114 166.254C67.6916 168.223 72.8113 169.228 77.978 169.21C78.59 169.208 79.2011 169.192 79.8111 169.161C79.811 169.177 79.811 169.193 79.811 169.209L119.156 169.209L158.5 169.209C158.5 164.02 157.482 158.882 155.505 154.087C153.528 149.293 150.63 144.937 146.976 141.268C143.323 137.598 138.986 134.688 134.212 132.702C129.439 130.716 124.322 129.694 119.156 129.694C118.499 129.694 117.843 129.71 117.189 129.743Z" fill="url(#paint4_linear_259_7614)"/>
<path d="M117.189 129.561L117.689 129.559L117.687 129.059L117.187 129.061L117.189 129.561ZM117.189 129.743L116.689 129.743L116.688 130.269L117.214 130.243L117.189 129.743ZM77.8443 129.695L77.846 130.195L77.8443 129.695ZM38.5 129.829L38.4983 129.329L37.9983 129.331L38 129.831L38.5 129.829ZM41.5461 144.941L42.0077 144.749L41.5461 144.941ZM50.1183 157.731L49.7651 158.085L50.1183 157.731ZM62.9114 166.254L63.1019 165.791L62.9114 166.254ZM77.978 169.21L77.9797 169.71L77.978 169.21ZM79.8111 169.161L80.3111 169.162L80.3117 168.635L79.786 168.662L79.8111 169.161ZM79.811 169.209H79.311V169.709H79.811V169.209ZM119.156 169.209V168.709V169.209ZM158.5 169.209V169.709H159V169.209H158.5ZM155.505 154.087L155.967 153.897L155.505 154.087ZM134.212 132.702L134.404 132.24L134.212 132.702ZM119.156 129.694V130.194V129.694ZM116.689 129.562C116.689 129.622 116.689 129.683 116.689 129.743L117.689 129.744C117.689 129.682 117.689 129.621 117.689 129.559L116.689 129.562ZM77.846 130.195L117.19 130.061L117.187 129.061L77.8426 129.195L77.846 130.195ZM38.5017 130.329L77.846 130.195L77.8426 129.195L38.4983 129.329L38.5017 130.329ZM42.0077 144.749C40.0394 140.022 39.0173 134.951 39 129.828L38 129.831C38.0178 135.086 39.0659 140.285 41.0845 145.133L42.0077 144.749ZM50.4714 157.377C46.852 153.767 43.976 149.476 42.0077 144.749L41.0845 145.133C43.1031 149.981 46.0528 154.382 49.7651 158.085L50.4714 157.377ZM63.1019 165.791C58.3826 163.847 54.0908 160.988 50.4714 157.377L49.7651 158.085C53.4775 161.789 57.8799 164.721 62.721 166.716L63.1019 165.791ZM77.9763 168.71C72.8755 168.728 67.8212 167.736 63.1019 165.791L62.721 166.716C67.5621 168.711 72.747 169.728 77.9797 169.71L77.9763 168.71ZM79.786 168.662C79.1838 168.692 78.5804 168.708 77.9763 168.71L77.9797 169.71C78.5995 169.708 79.2185 169.691 79.8362 169.66L79.786 168.662ZM80.311 169.209C80.311 169.193 80.311 169.177 80.3111 169.162L79.3111 169.16C79.311 169.177 79.311 169.193 79.311 169.209H80.311ZM119.156 168.709L79.811 168.709V169.709L119.156 169.709V168.709ZM158.5 168.709L119.156 168.709V169.709L158.5 169.709V168.709ZM155.043 154.278C156.995 159.012 158 164.085 158 169.209H159C159 163.955 157.97 158.752 155.967 153.897L155.043 154.278ZM146.622 141.621C150.229 145.243 153.091 149.544 155.043 154.278L155.967 153.897C153.965 149.042 151.03 144.631 147.331 140.915L146.622 141.621ZM134.02 133.164C138.733 135.124 143.015 137.998 146.622 141.621L147.331 140.915C143.631 137.199 139.238 134.251 134.404 132.24L134.02 133.164ZM119.156 130.194C124.256 130.194 129.307 131.203 134.02 133.164L134.404 132.24C129.57 130.229 124.388 129.194 119.156 129.194V130.194ZM117.214 130.243C117.86 130.21 118.507 130.194 119.156 130.194V129.194C118.491 129.194 117.826 129.211 117.164 129.244L117.214 130.243Z" fill="url(#paint5_linear_259_7614)" mask="url(#path-5-outside-1_259_7614)"/>
</g>
<defs>
<filter id="filter0_f_259_7614" x="6.5" y="52.6816" width="189" height="190" filterUnits="userSpaceOnUse" color-interpolation-filters="sRGB">
<feFlood flood-opacity="0" result="BackgroundImageFix"/>
<feBlend mode="normal" in="SourceGraphic" in2="BackgroundImageFix" result="shape"/>
<feGaussianBlur stdDeviation="20" result="effect1_foregroundBlur_259_7614"/>
</filter>
<filter id="filter1_b_259_7614" x="7.99829" y="99.0588" width="181.002" height="100.651" filterUnits="userSpaceOnUse" color-interpolation-filters="sRGB">
<feFlood flood-opacity="0" result="BackgroundImageFix"/>
<feGaussianBlur in="BackgroundImageFix" stdDeviation="15"/>
<feComposite in2="SourceAlpha" operator="in" result="effect1_backgroundBlur_259_7614"/>
<feBlend mode="normal" in="SourceGraphic" in2="effect1_backgroundBlur_259_7614" result="shape"/>
</filter>
<linearGradient id="paint0_linear_259_7614" x1="154" y1="80.5" x2="16" y2="15" gradientUnits="userSpaceOnUse">
<stop stop-color="#262629"/>
<stop offset="1" stop-color="#D7D7E0"/>
</linearGradient>
<linearGradient id="paint1_linear_259_7614" x1="84.65" y1="97.265" x2="144.196" y2="152.639" gradientUnits="userSpaceOnUse">
<stop stop-color="#563AE2" stop-opacity="0.5"/>
<stop offset="1" stop-color="#2F207C" stop-opacity="0.8"/>
</linearGradient>
<linearGradient id="paint2_linear_259_7614" x1="66.0725" y1="93.2967" x2="108.917" y2="133.331" gradientUnits="userSpaceOnUse">
<stop stop-color="#563AE2"/>
<stop offset="1" stop-color="#2F207C"/>
</linearGradient>
<linearGradient id="paint3_linear_259_7614" x1="106.775" y1="132.857" x2="149.62" y2="172.892" gradientUnits="userSpaceOnUse">
<stop stop-color="#563AE2"/>
<stop offset="1" stop-color="#2F207C"/>
</linearGradient>
<linearGradient id="paint4_linear_259_7614" x1="77.8893" y1="169.121" x2="122.7" y2="129.753" gradientUnits="userSpaceOnUse">
<stop stop-color="white" stop-opacity="0.2"/>
<stop offset="1" stop-color="white" stop-opacity="0.5"/>
</linearGradient>
<linearGradient id="paint5_linear_259_7614" x1="43.7519" y1="125.605" x2="115.475" y2="168.845" gradientUnits="userSpaceOnUse">
<stop stop-color="white"/>
<stop offset="1" stop-color="white" stop-opacity="0.2"/>
</linearGradient>
</defs>
</svg>
