<svg width="189" height="190" viewBox="0 0 189 190" fill="none" xmlns="http://www.w3.org/2000/svg">
<g filter="url(#filter0_f_219_4392)">
<ellipse cx="94.5" cy="95" rx="54.5" ry="55" fill="url(#paint0_linear_219_4392)" fill-opacity="0.8"/>
</g>
<ellipse cx="69.3893" cy="70.8788" rx="39.3893" ry="39.5604" fill="url(#paint1_linear_219_4392)"/>
<ellipse cx="110.092" cy="110.439" rx="39.3893" ry="39.5604" fill="url(#paint2_linear_219_4392)"/>
<g filter="url(#filter1_b_219_4392)">
<mask id="path-4-outside-1_219_4392" maskUnits="userSpaceOnUse" x="29" y="69.8789" width="122" height="42" fill="black">
<rect fill="white" x="29" y="69.8789" width="122" height="42"/>
<path fill-rule="evenodd" clip-rule="evenodd" d="M108.689 71.0617C108.689 71.0008 108.689 70.9398 108.689 70.8789L69.3443 71.0133L30 71.1476C30.0176 76.3368 31.0526 81.4717 33.0461 86.2592C35.0396 91.0466 37.9524 95.3929 41.6183 99.0497C45.2841 102.707 49.6313 105.602 54.4114 107.572C59.1916 109.541 64.3113 110.546 69.478 110.528C70.09 110.526 70.7011 110.51 71.3111 110.479C71.311 110.495 71.311 110.512 71.311 110.528L110.656 110.528L150 110.528C150 105.338 148.982 100.2 147.005 95.4058C145.028 90.6116 142.13 86.2554 138.476 82.5861C134.823 78.9167 130.486 76.0061 125.712 74.0202C120.939 72.0344 115.822 71.0123 110.656 71.0123C109.999 71.0123 109.343 71.0288 108.689 71.0617Z"/>
</mask>
<path fill-rule="evenodd" clip-rule="evenodd" d="M108.689 71.0617C108.689 71.0008 108.689 70.9398 108.689 70.8789L69.3443 71.0133L30 71.1476C30.0176 76.3368 31.0526 81.4717 33.0461 86.2592C35.0396 91.0466 37.9524 95.3929 41.6183 99.0497C45.2841 102.707 49.6313 105.602 54.4114 107.572C59.1916 109.541 64.3113 110.546 69.478 110.528C70.09 110.526 70.7011 110.51 71.3111 110.479C71.311 110.495 71.311 110.512 71.311 110.528L110.656 110.528L150 110.528C150 105.338 148.982 100.2 147.005 95.4058C145.028 90.6116 142.13 86.2554 138.476 82.5861C134.823 78.9167 130.486 76.0061 125.712 74.0202C120.939 72.0344 115.822 71.0123 110.656 71.0123C109.999 71.0123 109.343 71.0288 108.689 71.0617Z" fill="url(#paint3_linear_219_4392)"/>
<path d="M108.689 70.8789L109.189 70.8772L109.187 70.3772L108.687 70.3789L108.689 70.8789ZM108.689 71.0617L108.189 71.0611L108.188 71.5875L108.714 71.5611L108.689 71.0617ZM69.3443 71.0133L69.346 71.5133L69.3443 71.0133ZM30 71.1476L29.9983 70.6476L29.4983 70.6493L29.5 71.1493L30 71.1476ZM33.0461 86.2592L33.5077 86.067L33.0461 86.2592ZM41.6183 99.0497L41.2651 99.4037L41.6183 99.0497ZM54.4114 107.572L54.6019 107.11L54.4114 107.572ZM69.478 110.528L69.4797 111.028L69.478 110.528ZM71.3111 110.479L71.8111 110.48L71.8117 109.953L71.286 109.98L71.3111 110.479ZM71.311 110.528H70.811V111.028H71.311V110.528ZM110.656 110.528V110.028V110.528ZM150 110.528V111.028H150.5V110.528H150ZM147.005 95.4058L147.467 95.2152L147.005 95.4058ZM125.712 74.0202L125.904 73.5586L125.712 74.0202ZM110.656 71.0123V71.5123V71.0123ZM108.189 70.8806C108.189 70.9408 108.189 71.0009 108.189 71.0611L109.189 71.0623C109.189 71.0006 109.189 70.9389 109.189 70.8772L108.189 70.8806ZM69.346 71.5133L108.69 71.3789L108.687 70.3789L69.3426 70.5133L69.346 71.5133ZM30.0017 71.6476L69.346 71.5133L69.3426 70.5133L29.9983 70.6476L30.0017 71.6476ZM33.5077 86.067C31.5394 81.34 30.5173 76.2698 30.5 71.1459L29.5 71.1493C29.5178 76.4039 30.5659 81.6035 32.5845 86.4514L33.5077 86.067ZM41.9714 98.6957C38.352 95.0853 35.476 90.794 33.5077 86.067L32.5845 86.4514C34.6031 91.2993 37.5528 95.7005 41.2651 99.4037L41.9714 98.6957ZM54.6019 107.11C49.8826 105.165 45.5908 102.306 41.9714 98.6957L41.2651 99.4037C44.9775 103.107 49.3799 106.04 54.221 108.034L54.6019 107.11ZM69.4763 110.028C64.3755 110.046 59.3212 109.054 54.6019 107.11L54.221 108.034C59.0621 110.029 64.247 111.046 69.4797 111.028L69.4763 110.028ZM71.286 109.98C70.6838 110.01 70.0804 110.026 69.4763 110.028L69.4797 111.028C70.0995 111.026 70.7185 111.01 71.3362 110.979L71.286 109.98ZM71.811 110.528C71.811 110.512 71.811 110.496 71.8111 110.48L70.8111 110.479C70.811 110.495 70.811 110.511 70.811 110.528H71.811ZM110.656 110.028L71.311 110.028V111.028L110.656 111.028V110.028ZM150 110.028L110.656 110.028V111.028L150 111.028V110.028ZM146.543 95.5965C148.495 100.33 149.5 105.404 149.5 110.528H150.5C150.5 105.273 149.47 100.07 147.467 95.2152L146.543 95.5965ZM138.122 82.9389C141.729 86.5617 144.591 90.8627 146.543 95.5965L147.467 95.2152C145.465 90.3604 142.53 85.9492 138.831 82.2333L138.122 82.9389ZM125.52 74.4819C130.233 76.4424 134.515 79.3161 138.122 82.9389L138.831 82.2333C135.131 78.5174 130.738 75.5697 125.904 73.5586L125.52 74.4819ZM110.656 71.5123C115.756 71.5123 120.807 72.5213 125.52 74.4819L125.904 73.5586C121.07 71.5474 115.888 70.5123 110.656 70.5123V71.5123ZM108.714 71.5611C109.36 71.5286 110.007 71.5123 110.656 71.5123V70.5123C109.991 70.5123 109.326 70.529 108.664 70.5623L108.714 71.5611Z" fill="url(#paint4_linear_219_4392)" mask="url(#path-4-outside-1_219_4392)"/>
</g>
<defs>
<filter id="filter0_f_219_4392" x="0" y="0" width="189" height="190" filterUnits="userSpaceOnUse" color-interpolation-filters="sRGB">
<feFlood flood-opacity="0" result="BackgroundImageFix"/>
<feBlend mode="normal" in="SourceGraphic" in2="BackgroundImageFix" result="shape"/>
<feGaussianBlur stdDeviation="20" result="effect1_foregroundBlur_219_4392"/>
</filter>
<filter id="filter1_b_219_4392" x="-0.501709" y="40.3774" width="181.002" height="100.651" filterUnits="userSpaceOnUse" color-interpolation-filters="sRGB">
<feFlood flood-opacity="0" result="BackgroundImageFix"/>
<feGaussianBlur in="BackgroundImageFix" stdDeviation="15"/>
<feComposite in2="SourceAlpha" operator="in" result="effect1_backgroundBlur_219_4392"/>
<feBlend mode="normal" in="SourceGraphic" in2="effect1_backgroundBlur_219_4392" result="shape"/>
</filter>
<linearGradient id="paint0_linear_219_4392" x1="78.15" y1="44.5833" x2="137.696" y2="99.9573" gradientUnits="userSpaceOnUse">
<stop stop-color="#563AE2" stop-opacity="0.5"/>
<stop offset="1" stop-color="#2F207C" stop-opacity="0.8"/>
</linearGradient>
<linearGradient id="paint1_linear_219_4392" x1="57.5725" y1="34.6151" x2="100.417" y2="74.6495" gradientUnits="userSpaceOnUse">
<stop stop-color="#563AE2"/>
<stop offset="1" stop-color="#2F207C"/>
</linearGradient>
<linearGradient id="paint2_linear_219_4392" x1="98.2748" y1="74.1756" x2="141.12" y2="114.21" gradientUnits="userSpaceOnUse">
<stop stop-color="#563AE2"/>
<stop offset="1" stop-color="#2F207C"/>
</linearGradient>
<linearGradient id="paint3_linear_219_4392" x1="69.3893" y1="110.439" x2="114.2" y2="71.0717" gradientUnits="userSpaceOnUse">
<stop stop-color="white" stop-opacity="0.2"/>
<stop offset="1" stop-color="white" stop-opacity="0.5"/>
</linearGradient>
<linearGradient id="paint4_linear_219_4392" x1="35.2519" y1="66.9229" x2="106.975" y2="110.164" gradientUnits="userSpaceOnUse">
<stop stop-color="white"/>
<stop offset="1" stop-color="white" stop-opacity="0.2"/>
</linearGradient>
</defs>
</svg>
