<svg width="143" height="17" viewBox="0 0 143 17" fill="none" xmlns="http://www.w3.org/2000/svg">
<path d="M5.89453 3.45117H0.259766V0.736328H14.625V3.45117H8.99023V16H5.89453V3.45117ZM17.3594 0.736328H20.4551V9.14453C20.4551 9.83464 20.5495 10.4499 20.7383 10.9902C20.9271 11.5241 21.207 11.9766 21.5781 12.3477C21.9557 12.7188 22.4212 13.002 22.9746 13.1973C23.528 13.3861 24.1725 13.4805 24.9082 13.4805C25.6374 13.4805 26.2786 13.3861 26.832 13.1973C27.3919 13.002 27.8574 12.7188 28.2285 12.3477C28.6061 11.9766 28.8893 11.5241 29.0781 10.9902C29.2669 10.4499 29.3613 9.83464 29.3613 9.14453V0.736328H32.457V9.51562C32.457 10.5182 32.2878 11.4297 31.9492 12.25C31.6107 13.0703 31.1191 13.7734 30.4746 14.3594C29.8301 14.9453 29.0391 15.3978 28.1016 15.7168C27.1706 16.0358 26.1061 16.1953 24.9082 16.1953C23.7103 16.1953 22.6426 16.0358 21.7051 15.7168C20.7741 15.3978 19.9863 14.9453 19.3418 14.3594C18.6973 13.7734 18.2057 13.0703 17.8672 12.25C17.5286 11.4297 17.3594 10.5182 17.3594 9.51562V0.736328ZM36.2168 0.736328H39.3125L48.8242 5.7168V0.736328H51.9199V16H48.8242V8.99805L39.3125 4.04688V16H36.2168V0.736328ZM56.2363 0.736328H69.2344V3.45117H59.332V6.49805H68.1016V9.04688H59.332V13.2949H69.4395V16H56.2363V0.736328ZM72.8867 0.736328H75.9824L81.5293 6.30273L87.0762 0.736328H90.1719V16H87.0762V5.02344L81.5293 10.3652L75.9824 5.02344V16H72.8867V0.736328ZM99.7227 0.736328H103.004L110.387 16H107.135L105.914 13.4316H96.998L95.8164 16H92.5547L99.7227 0.736328ZM104.693 10.8828L101.393 3.94922L98.1797 10.8828H104.693ZM117.359 3.45117H111.725V0.736328H126.09V3.45117H120.455V16H117.359V3.45117ZM129.4 0.736328H142.398V3.45117H132.496V6.49805H141.266V9.04688H132.496V13.2949H142.604V16H129.4V0.736328Z" fill="url(#paint0_linear_219_4391)"/>
<defs>
<linearGradient id="paint0_linear_219_4391" x1="127" y1="74.5" x2="-11" y2="9.00001" gradientUnits="userSpaceOnUse">
<stop stop-color="#262629"/>
<stop offset="1" stop-color="#D7D7E0"/>
</linearGradient>
</defs>
</svg>
