<svg width="19" height="19" viewBox="0 0 19 19" fill="none" xmlns="http://www.w3.org/2000/svg">
<path fill-rule="evenodd" clip-rule="evenodd" d="M12.7437 11.6743L16.7787 15.7093C16.9205 15.8512 17.0002 16.0437 17.0001 16.2443C17 16.445 16.9202 16.6374 16.7783 16.7792C16.6364 16.921 16.4439 17.0006 16.2433 17.0006C16.0427 17.0005 15.8503 16.9207 15.7084 16.7788L11.6734 12.7438C10.4672 13.6781 8.95041 14.1177 7.43154 13.9733C5.91268 13.8289 4.50587 13.1113 3.49731 11.9665C2.48875 10.8217 1.95419 9.33566 2.00239 7.81071C2.05058 6.28576 2.67791 4.83645 3.75675 3.75761C4.83559 2.67877 6.28491 2.05144 7.80986 2.00324C9.33481 1.95505 10.8208 2.4896 11.9657 3.49816C13.1105 4.50673 13.8281 5.91353 13.9725 7.4324C14.1169 8.95126 13.6772 10.4681 12.7429 11.6743M7.99995 12.5001C9.19342 12.5001 10.338 12.0259 11.1819 11.182C12.0258 10.3381 12.4999 9.19353 12.4999 8.00005C12.4999 6.80658 12.0258 5.66199 11.1819 4.81807C10.338 3.97416 9.19342 3.50005 7.99995 3.50005C6.80647 3.50005 5.66188 3.97416 4.81797 4.81807C3.97405 5.66199 3.49995 6.80658 3.49995 8.00005C3.49995 9.19353 3.97405 10.3381 4.81797 11.182C5.66188 12.0259 6.80647 12.5001 7.99995 12.5001Z" fill="white"/>
</svg>
