<svg width="20" height="20" viewBox="0 0 20 20" fill="none" xmlns="http://www.w3.org/2000/svg">
<path d="M8.75 5.25195C8.75 5.04324 8.75 4.93814 8.76201 4.85105C8.80046 4.57633 8.92736 4.32161 9.12351 4.12546C9.31966 3.92931 9.57438 3.80241 9.8491 3.76397C9.93769 3.75195 10.0413 3.75195 10.25 3.75195C10.4587 3.75195 10.5653 3.75195 10.6509 3.76397C10.9256 3.80241 11.1803 3.92931 11.3765 4.12546C11.5726 4.32161 11.6995 4.57633 11.738 4.85105C11.75 4.93814 11.75 5.04324 11.75 5.25195C11.75 5.46066 11.75 5.56577 11.738 5.65285C11.6995 5.92758 11.5726 6.18229 11.3765 6.37844C11.1803 6.57459 10.9256 6.7015 10.6509 6.73994C10.5638 6.75195 10.4587 6.75195 10.25 6.75195C10.0413 6.75195 9.93619 6.75195 9.8491 6.73994C9.57438 6.7015 9.31966 6.57459 9.12351 6.37844C8.92736 6.18229 8.80046 5.92758 8.76201 5.65285C8.75 5.56577 8.75 5.46066 8.75 5.25195ZM8.75 11.258C8.75 11.0493 8.75 10.9441 8.76201 10.8571C8.80046 10.5823 8.92736 10.3276 9.12351 10.1315C9.31966 9.93532 9.57438 9.80841 9.8491 9.76997C9.93769 9.75796 10.0413 9.75796 10.25 9.75796C10.4587 9.75796 10.5653 9.75796 10.6509 9.76997C10.9256 9.80841 11.1803 9.93532 11.3765 10.1315C11.5726 10.3276 11.6995 10.5823 11.738 10.8571C11.75 10.9441 11.75 11.0493 11.75 11.258C11.75 11.4667 11.75 11.5718 11.738 11.6589C11.6995 11.9336 11.5726 12.1883 11.3765 12.3844C11.1803 12.5806 10.9256 12.7075 10.6509 12.7459C10.5638 12.758 10.4587 12.758 10.25 12.758C10.0413 12.758 9.93619 12.758 9.8491 12.7459C9.57438 12.7075 9.31966 12.5806 9.12351 12.3844C8.92736 12.1883 8.80046 11.9336 8.76201 11.6589C8.75 11.5718 8.75 11.4667 8.75 11.258ZM8.75 17.264C8.75 17.0553 8.75 16.9502 8.76201 16.8631C8.80046 16.5883 8.92736 16.3336 9.12351 16.1375C9.31966 15.9413 9.57438 15.8144 9.8491 15.776C9.93769 15.764 10.0413 15.764 10.25 15.764C10.4587 15.764 10.5653 15.764 10.6509 15.776C10.9256 15.8144 11.1803 15.9413 11.3765 16.1375C11.5726 16.3336 11.6995 16.5883 11.738 16.8631C11.75 16.9502 11.75 17.0553 11.75 17.264C11.75 17.4727 11.75 17.5778 11.738 17.6664C11.6995 17.9411 11.5726 18.1958 11.3765 18.392C11.1803 18.5881 10.9256 18.715 10.6509 18.7535C10.5638 18.7655 10.4587 18.7655 10.2515 18.7655C10.0443 18.7655 9.93769 18.7655 9.8506 18.7535C9.57588 18.715 9.32116 18.5881 9.12501 18.392C8.92886 18.1958 8.80196 17.9411 8.76351 17.6664C8.75 17.5793 8.75 17.4742 8.75 17.264Z" fill="white"/>
</svg>
