<svg width="17" height="16" viewBox="0 0 17 16" fill="none" xmlns="http://www.w3.org/2000/svg">
<path d="M8.55083 5.20814C6.99763 5.20814 5.73833 6.46743 5.73833 8.02064C5.73833 9.57361 6.99763 10.8331 8.55083 10.8331C10.104 10.8331 11.3633 9.57384 11.3633 8.02064C11.3633 6.46743 10.104 5.20814 8.55083 5.20814ZM8.55083 9.89564C7.517 9.89564 6.65425 9.03407 6.65425 8.00023C6.65425 6.96639 7.49542 6.12523 8.52925 6.12523C9.56332 6.12523 10.4043 6.9664 10.4043 8.00023C10.4043 9.03406 9.58489 9.89564 8.55083 9.89564ZM15.9953 7.89126C15.9899 7.86759 15.9923 7.84256 15.9852 7.81934C15.9822 7.80951 15.9761 7.80388 15.9725 7.79521C15.9676 7.78185 15.9688 7.76615 15.962 7.75326C14.5986 4.63162 11.6603 2.8349 8.52905 2.8349C5.3978 2.8349 2.40061 4.62834 1.03655 7.75021C1.03069 7.76335 1.03163 7.77693 1.02692 7.79195C1.02366 7.80109 1.01686 7.80623 1.01381 7.8149C1.00655 7.83857 1.00936 7.86318 1.00491 7.88709C0.99625 7.92928 0.988281 7.97029 0.988281 8.01295C0.988281 8.05607 0.99625 8.09592 1.00491 8.13879C1.00959 8.16223 1.00656 8.18778 1.01383 8.21028C1.01687 8.22082 1.02367 8.22528 1.02694 8.23488C1.03186 8.24778 1.03069 8.26371 1.03655 8.2766C2.40084 11.3975 5.36873 13.165 8.49998 13.165C11.6315 13.165 14.5987 11.4013 15.9625 8.27964C15.9693 8.26628 15.9679 8.25221 15.973 8.23745C15.9763 8.22925 15.9826 8.22315 15.9855 8.21401C15.9927 8.19104 15.9904 8.16596 15.9955 8.14206C16.0037 8.1001 16.0115 8.05909 16.0115 8.01573C16.0115 7.97448 16.0037 7.9337 15.9953 7.89126ZM8.49997 12.2275C5.84427 12.2275 3.2303 10.8276 1.94592 8.0134C3.21811 5.20864 5.86702 3.77262 8.52928 3.77262C11.1906 3.77262 13.7807 5.21028 15.0533 8.01645C13.7816 10.8203 11.1622 12.2275 8.49997 12.2275Z" fill="white"/>
</svg>
